<svg width="200" height="200" viewBox="0 0 200 200" fill="none" xmlns="http://www.w3.org/2000/svg">
<g id="Dribbble">
<g id="Dribbble_2">
<path id="back" d="M0 100C0 44.7715 44.7715 0 100 0C155.228 0 200 44.7715 200 100C200 155.228 155.228 200 100 200C44.7715 200 0 155.228 0 100Z" fill="#F26798"/>
<path id="Path" fill-rule="evenodd" clip-rule="evenodd" d="M153.333 99.9261C153.333 103.533 152.966 107.135 152.245 110.646C151.542 114.073 150.5 117.438 149.135 120.655C147.802 123.815 146.148 126.86 144.216 129.7C142.312 132.522 140.119 135.169 137.71 137.582C135.296 139.985 132.64 142.172 129.819 144.083C126.97 146.002 123.921 147.654 120.759 148.993C117.538 150.351 114.165 151.391 110.74 152.093C107.225 152.816 103.61 153.185 99.9976 153.185C96.3828 153.185 92.7681 152.816 89.2575 152.093C85.8277 151.391 82.4551 150.351 79.2362 148.993C76.0746 147.654 73.0222 146.002 70.1732 144.083C67.3527 142.172 64.6964 139.985 62.2874 137.582C59.8759 135.169 57.6829 132.522 55.7766 129.7C53.8546 126.86 52.1982 123.815 50.8597 120.655C49.4948 117.438 48.4507 114.073 47.7449 110.646C47.0313 107.135 46.6667 103.533 46.6667 99.9261C46.6667 96.3165 47.0311 92.707 47.7451 89.2038C48.4509 85.7762 49.495 82.406 50.8599 79.1944C52.1984 76.0322 53.8548 72.9844 55.7768 70.1445C57.6831 67.3204 59.8761 64.6781 62.2876 62.2621C64.6966 59.8591 67.3529 57.6775 70.1734 55.7687C73.0224 53.8416 76.0748 52.1904 79.2364 50.8484C82.4553 49.4881 85.8277 48.4454 89.2577 47.7485C92.7683 47.0309 96.383 46.6667 99.9978 46.6667C103.61 46.6667 107.225 47.0309 110.74 47.7485C114.165 48.4456 117.538 49.4883 120.759 50.8484C123.921 52.1902 126.97 53.8416 129.819 55.7687C132.64 57.6775 135.297 59.8591 137.711 62.2621C140.12 64.6781 142.312 67.3204 144.216 70.1445C146.148 72.9844 147.802 76.0324 149.135 79.1944C150.5 82.406 151.542 85.7762 152.245 89.2038C152.966 92.707 153.333 96.3165 153.333 99.9261ZM80.5642 58.7879C67.8629 64.7771 58.3833 76.4639 55.4274 90.5485L55.4711 90.5489C57.0278 90.5633 75.8383 90.7372 97.4765 84.9962C89.5934 71.0104 81.1711 59.5969 80.5642 58.7879ZM54.4873 98.4751C55.2946 98.5061 77.7985 99.0106 101.25 91.9998C102.555 94.5535 103.802 97.1437 104.946 99.7285C104.347 99.9 103.742 100.077 103.149 100.275C78.5694 108.211 66.105 130.293 66.1207 130.316C58.8651 122.262 54.4508 111.61 54.4508 99.9261C54.4508 99.5888 54.4619 99.259 54.4731 98.9264C54.4782 98.7769 54.4833 98.6267 54.4873 98.4751ZM130.077 65.7912C122.059 58.7306 111.529 54.4478 99.9976 54.4478C96.2968 54.4478 92.7055 54.8951 89.2652 55.722L89.3393 55.8211C90.4177 57.2636 98.7171 68.3636 106.292 82.2526C123.337 75.8716 129.858 66.1188 130.073 65.7973L130.077 65.7912ZM107.995 107.283C108.013 107.277 108.032 107.271 108.05 107.265C114.459 123.898 117.105 137.826 117.779 141.8C112.313 144.122 106.305 145.404 99.9976 145.404C89.4345 145.404 79.7361 141.782 72.0038 135.777C72.0987 135.571 80.8746 116.719 107.748 107.364C107.811 107.341 107.875 107.32 107.939 107.3C107.958 107.294 107.976 107.289 107.995 107.283ZM125.449 137.644C135.676 130.753 142.94 119.81 144.966 107.135C144.028 106.833 131.286 102.805 116.584 105.158C122.558 121.552 124.986 134.904 125.449 137.644ZM112.824 95.6247C111.879 93.4062 110.855 91.1987 109.798 89.0297C127.665 81.7429 134.992 71.2907 135.169 71.0376L135.171 71.034C141.562 78.7808 145.425 88.676 145.529 99.4577C145.516 99.4551 145.498 99.4514 145.475 99.4465C144.279 99.1978 129.155 96.0524 113.808 97.9808C113.488 97.2008 113.16 96.4206 112.824 95.6247Z" fill="white"/>
</g>
</g>
</svg>
