<svg width="200" height="200" viewBox="0 0 200 200" fill="none" xmlns="http://www.w3.org/2000/svg">
<g id="Google">
<g id="Google_2">
<path id="back" d="M0 100C0 44.7715 44.7715 0 100 0C155.228 0 200 44.7715 200 100C200 155.228 155.228 200 100 200C44.7715 200 0 155.228 0 100Z" fill="white"/>
<g id="super-g">
<path id="Shape" d="M100 73.4222C108.137 73.4222 113.626 76.937 116.756 79.8741L128.985 67.9333C121.474 60.9518 111.7 56.6667 100 56.6667C83.0518 56.6667 68.4148 66.3926 61.2889 80.5481L75.3 91.4296C78.8148 80.9815 88.5407 73.4222 100 73.4222V73.4222Z" fill="#EA4335"/>
<path id="Shape_2" d="M141.6 100.963C141.6 97.4 141.311 94.8 140.685 92.1037H100V108.185H123.881C123.4 112.181 120.8 118.2 115.022 122.244L128.696 132.837C136.881 125.278 141.6 114.156 141.6 100.963V100.963Z" fill="#4285F4"/>
<path id="Shape_3" d="M75.3481 108.57C74.4333 105.874 73.9037 102.985 73.9037 100C73.9037 97.0148 74.4333 94.1259 75.3 91.4296L61.2889 80.5482C58.3518 86.4222 56.6667 93.0185 56.6667 100C56.6667 106.981 58.3518 113.578 61.2889 119.452L75.3481 108.57V108.57Z" fill="#FBBC05"/>
<path id="Shape_4" d="M100 143.333C111.7 143.333 121.522 139.481 128.696 132.837L115.022 122.244C111.363 124.796 106.452 126.578 100 126.578C88.5407 126.578 78.8148 119.019 75.3481 108.57L61.337 119.452C68.463 133.607 83.0519 143.333 100 143.333V143.333Z" fill="#34A853"/>
</g>
</g>
</g>
</svg>
