<svg width="100" height="100" viewBox="0 0 100 100" fill="none" xmlns="http://www.w3.org/2000/svg">
<g id="Google">
<g id="Google_2">
<path id="back" d="M0 50C0 22.3858 22.3858 0 50 0C77.6142 0 100 22.3858 100 50C100 77.6142 77.6142 100 50 100C22.3858 100 0 77.6142 0 50Z" fill="white"/>
<g id="super-g">
<path id="Shape" d="M50 36.7111C54.0685 36.7111 56.813 38.4685 58.3778 39.937L64.4926 33.9667C60.737 30.4759 55.85 28.3333 50 28.3333C41.5259 28.3333 34.2074 33.1963 30.6444 40.2741L37.65 45.7148C39.4074 40.4907 44.2704 36.7111 50 36.7111Z" fill="#EA4335"/>
<path id="Shape_2" d="M70.8 50.4815C70.8 48.7 70.6556 47.4 70.3426 46.0518H50V54.0926H61.9407C61.7 56.0907 60.4 59.1 57.5111 61.1222L64.3481 66.4185C68.4407 62.6389 70.8 57.0778 70.8 50.4815Z" fill="#4285F4"/>
<path id="Shape_3" d="M37.6741 54.2852C37.2167 52.937 36.9519 51.4926 36.9519 50C36.9519 48.5074 37.2167 47.063 37.65 45.7148L30.6444 40.2741C29.1759 43.2111 28.3333 46.5093 28.3333 50C28.3333 53.4907 29.1759 56.7889 30.6444 59.7259L37.6741 54.2852Z" fill="#FBBC05"/>
<path id="Shape_4" d="M50 71.6667C55.85 71.6667 60.7611 69.7407 64.3482 66.4185L57.5111 61.1222C55.6815 62.3982 53.2259 63.2889 50 63.2889C44.2704 63.2889 39.4074 59.5093 37.6741 54.2852L30.6685 59.7259C34.2315 66.8037 41.5259 71.6667 50 71.6667Z" fill="#34A853"/>
</g>
</g>
</g>
</svg>
